<svg width="293" height="304" viewBox="0 0 293 304" fill="none" xmlns="http://www.w3.org/2000/svg">
<path d="M206.623 298.948C213.521 299.19 220.419 299.055 227.317 298.921C246.556 298.57 265.822 298.22 285.06 297.87C288.051 297.816 291.932 297.169 292.147 294.879C292.336 292.831 289.291 291.538 286.731 290.918C277.516 288.735 267.816 288.304 258.25 287.927C244.158 287.388 230.065 286.93 215.973 286.58C207.162 286.364 198.135 286.203 189.944 288.466C185.471 289.705 178.869 294.96 185.983 297.519C187.95 298.22 191.938 297.897 194.066 298.085C198.216 298.49 202.419 298.813 206.623 298.948Z" fill="url(#paint0_linear)"/>
<path d="M206.623 298.948C213.521 299.19 220.419 299.055 227.317 298.921C246.556 298.57 265.822 298.22 285.06 297.87C288.051 297.816 291.932 297.169 292.147 294.879C292.336 292.831 289.291 291.538 286.731 290.918C277.516 288.735 267.816 288.304 258.25 287.927C244.158 287.388 230.065 286.93 215.973 286.58C207.162 286.364 198.135 286.203 189.944 288.466C185.471 289.705 178.869 294.96 185.983 297.519C187.95 298.22 191.938 297.897 194.066 298.085C198.216 298.49 202.419 298.813 206.623 298.948Z" fill="url(#paint1_linear)"/>
<path d="M241.95 285.341C241.977 285.476 242.004 285.611 242.112 285.718C242.246 285.88 242.489 285.88 242.704 285.88C244.213 285.853 245.749 285.745 247.231 285.476C247.878 285.368 248.659 285.099 248.794 284.452C248.848 284.156 248.74 283.832 248.632 283.563C247.985 281.865 247.339 280.168 246.692 278.47C246.665 278.416 246.638 278.335 246.584 278.308C246.503 278.255 246.396 278.228 246.315 278.228C245.237 278.201 244.159 278.308 243.082 278.524C242.408 278.659 241.142 278.74 240.818 279.467C240.495 280.168 241.034 281.353 241.195 282.054C241.465 283.132 241.707 284.237 241.95 285.341Z" fill="#F9E9DE"/>
<path d="M205.196 285.34C206.651 285.421 208.106 285.502 209.534 285.61C209.669 285.61 209.83 285.61 209.938 285.529C210.073 285.421 210.073 285.26 210.1 285.098C210.181 283.212 210.127 281.326 209.965 279.439C209.965 279.305 209.938 279.143 209.857 279.035C209.749 278.9 209.561 278.847 209.372 278.793C208.537 278.604 207.702 278.416 206.839 278.416C206.166 278.416 205.385 278.523 204.792 278.874C204.172 279.251 204.28 279.493 204.388 280.14C204.684 281.865 204.872 283.589 205.196 285.34Z" fill="#F9E9DE"/>
<path d="M239.175 279.466C242.166 280.112 245.346 279.735 248.094 278.415C244.995 267.987 244.079 264.915 241.007 254.487C240.037 251.2 239.04 247.859 238.636 244.464C238.151 240.26 238.555 236.003 238.96 231.8C240.522 215.471 244.51 161.365 246.073 145.063C246.208 143.689 246.342 142.287 245.911 140.967C244.699 137.222 233.84 136.575 229.906 136.252C229.044 136.171 222.604 136.144 221.903 136.629C221.095 137.195 214.709 136.036 214.574 137.006C212.688 149.805 219.802 176.723 219.909 190.438C219.936 194.992 221.768 224.147 222.119 228.701C222.738 236.704 225.217 245.164 228.559 252.494C233.678 263.757 234.352 266.316 239.175 279.466Z" fill="#97A8B2"/>
<path d="M217.024 138.543C216.054 137.761 206.381 137.034 205.141 137.007L189.728 137.249C189.378 162.147 194.336 230.507 199.105 254.946C201.153 265.482 203.497 269.039 203.524 279.763C205.788 279.763 208.024 279.763 210.288 279.763C211.042 246.189 219.449 176.347 220.231 142.773C220.258 141.103 218.344 139.621 217.024 138.543Z" fill="#97A8B2"/>
<path d="M208.617 60.3735C206.435 53.1252 198.19 52.1013 196.761 61.4513C195.468 69.9121 189.244 87.696 185.687 95.9951C183.989 99.983 180.675 103.055 176.041 104.779C166.825 108.201 157.88 112.243 148.503 115.261C148.53 115.315 148.53 115.342 148.53 115.396C146.967 116.015 145.269 116.339 143.572 116.339C141.362 116.339 138.991 115.827 137.105 116.878C137.212 117.12 137.32 117.363 137.455 117.632C137.913 117.713 138.344 117.794 138.802 117.848C137.724 118.09 136.674 118.494 135.704 119.033C134.761 119.572 133.844 120.488 134.141 121.458C134.464 122.428 135.757 122.698 136.835 122.725C141.362 122.86 145.754 121.485 150.038 119.976C161.921 117.605 170.086 113.51 182.049 111.165C184.367 110.707 186.792 110.222 188.813 109.01C190.78 107.824 192.154 106.1 193.366 104.375C201.423 92.8964 212.147 71.9869 208.617 60.3735Z" fill="#F9E9DE"/>
<path d="M226.75 45.3664C228.42 43.6149 229.714 41.136 230.414 38.0642C231.708 32.3788 232.382 26.3969 231.007 20.8193C229.418 14.4063 223.786 7.45436 216.672 8.04716C208.346 8.72079 207.08 19.6067 206.46 26.882C205.948 32.6482 206.972 38.7378 210.367 43.1838C215.487 49.8124 222.385 50.001 226.75 45.3664Z" fill="#F9E9DE"/>
<path d="M193.366 284.424C194.686 284.451 196.034 284.532 197.354 284.747C198.917 284.963 200.48 285.34 202.042 285.179C202.743 285.098 203.417 284.936 204.117 284.828C205.195 284.667 206.273 284.694 207.351 284.694C208.348 284.72 209.345 284.721 210.341 284.747C210.611 284.747 210.934 284.774 211.15 284.936C211.392 285.125 211.473 285.421 211.527 285.717C211.77 286.822 211.904 287.954 211.904 289.086C211.904 289.759 211.85 290.514 211.392 290.999C211.069 291.349 210.584 291.538 210.126 291.672C209.237 291.888 208.321 291.942 207.405 291.996C202.689 292.265 197.947 292.508 193.231 292.211C191.588 292.104 188.597 292.346 187.384 291.026C186.36 289.921 186.872 288.143 187.492 286.984C188.678 284.774 191.102 284.397 193.366 284.424Z" fill="#537082"/>
<path d="M195.574 288.521C195.898 288.629 196.275 288.682 196.625 288.656C196.679 288.656 196.733 288.629 196.787 288.602C196.841 288.548 196.841 288.494 196.841 288.413C196.921 287.227 196.948 286.015 196.895 284.829C196.895 284.775 196.894 284.722 196.868 284.668C196.841 284.614 196.76 284.587 196.679 284.56C195.601 284.29 195.655 284.587 195.655 285.584C195.655 286.554 195.628 287.551 195.574 288.521Z" fill="#C1C1C1"/>
<path d="M199.264 287.954C199.264 288.062 199.264 288.17 199.345 288.251C199.426 288.304 199.534 288.305 199.614 288.278C199.911 288.224 200.207 288.197 200.504 288.143C200.557 288.143 200.611 288.116 200.638 288.089C200.692 288.035 200.692 287.981 200.692 287.9C200.719 286.903 200.719 285.906 200.719 284.909C200.719 284.856 200.719 284.802 200.692 284.775C200.665 284.721 200.611 284.721 200.558 284.694C200.099 284.559 199.668 284.802 199.264 284.694C199.21 285.772 199.264 286.876 199.264 287.954Z" fill="#C1C1C1"/>
<path d="M202.848 287.765C202.848 287.819 202.875 287.873 202.902 287.9C202.929 287.927 202.983 287.927 203.036 287.927C203.252 287.927 203.495 287.927 203.71 287.927C203.818 287.927 203.926 287.927 204.006 287.846C204.06 287.792 204.06 287.711 204.087 287.63C204.141 286.984 204.222 284.101 202.929 284.639C202.039 284.99 202.713 287.091 202.848 287.765Z" fill="#C1C1C1"/>
<path d="M240.817 286.014C241.194 285.368 241.625 284.721 242.218 284.263C242.838 283.778 243.592 283.481 244.347 283.239C245.317 282.942 246.341 282.754 247.365 282.889C248.927 283.104 250.329 284.155 251.218 285.475C252.107 286.796 252.565 288.358 252.781 289.948C252.835 290.298 252.862 290.676 252.754 291.026C252.619 291.376 252.349 291.619 252.026 291.834C251.056 292.481 249.871 292.724 248.712 292.858C246.987 293.074 245.236 293.155 243.485 293.236C242.676 293.263 241.814 293.289 241.033 293.02C239.793 292.589 239.146 291.834 239.335 290.568C239.578 288.951 240.009 287.442 240.817 286.014Z" fill="#537082"/>
<path d="M201.315 69.4274C198.674 90.5795 193.097 111.22 188.624 132.075C188.193 134.096 187.761 136.198 188.327 138.192C189.109 140.967 191.668 142.934 194.39 143.931C197.327 145.036 200.507 145.251 203.632 145.44C215.246 146.087 226.886 146.087 238.473 145.44C240.062 145.359 241.706 145.251 243.134 144.524C245.586 143.311 246.96 140.536 247.256 137.815C247.58 135.093 247.014 132.372 246.583 129.65C243.996 113.294 245.99 96.4535 243.107 80.1247C242.299 75.4632 241.086 70.8555 240.709 66.1401C240.493 63.4186 240.574 60.6703 240.008 58.0296C239.443 55.362 238.095 52.7213 235.751 51.3202C231.494 48.7873 226.159 51.2933 221.255 51.9669C217.994 52.3981 214.68 51.9669 211.5 51.2125C209.048 50.6466 206.596 48.949 204.818 51.1855C201.611 55.2542 201.935 64.5503 201.315 69.4274Z" fill="#EFEFEF"/>
<path d="M201.046 96.8569C197.974 96.8569 197.974 101.626 201.046 101.626C204.118 101.599 204.118 96.8569 201.046 96.8569Z" fill="#333333"/>
<path d="M207.513 84.6514C204.441 84.6514 204.441 89.4207 207.513 89.4207C210.585 89.3937 210.585 84.6514 207.513 84.6514Z" fill="#333333"/>
<path d="M213.091 103.189C210.019 103.189 210.019 107.958 213.091 107.958C216.163 107.931 216.163 103.189 213.091 103.189Z" fill="#333333"/>
<path d="M217.132 75.0044C214.06 75.0044 214.06 79.7738 217.132 79.7738C220.204 79.7468 220.204 75.0044 217.132 75.0044Z" fill="#333333"/>
<path d="M197.296 115.935C194.224 115.935 194.224 120.704 197.296 120.704C200.341 120.677 200.368 115.935 197.296 115.935Z" fill="#333333"/>
<path d="M223.222 91.5752C220.15 91.5752 220.15 96.3446 223.222 96.3446C226.294 96.3446 226.294 91.5752 223.222 91.5752Z" fill="#333333"/>
<path d="M194.982 133.799C191.91 133.799 191.91 138.568 194.982 138.568C198.053 138.568 198.053 133.799 194.982 133.799Z" fill="#333333"/>
<path d="M208.376 122.24C205.304 122.24 205.304 127.01 208.376 127.01C211.421 126.983 211.421 122.24 208.376 122.24Z" fill="#333333"/>
<path d="M219.069 134.634C215.998 134.634 215.998 139.403 219.069 139.403C222.114 139.377 222.141 134.634 219.069 134.634Z" fill="#333333"/>
<path d="M223.222 115.935C220.15 115.935 220.15 120.704 223.222 120.704C226.294 120.677 226.294 115.935 223.222 115.935Z" fill="#333333"/>
<path d="M241.946 134.634C238.875 134.634 238.875 139.403 241.946 139.403C244.991 139.377 244.991 134.634 241.946 134.634Z" fill="#333333"/>
<path d="M241.946 113.267C245.018 113.267 245.018 108.498 241.946 108.498C238.875 108.525 238.875 113.267 241.946 113.267Z" fill="#333333"/>
<path d="M208.376 65.9775C205.304 65.9775 205.304 70.7469 208.376 70.7469C211.421 70.72 211.421 65.9775 208.376 65.9775Z" fill="#333333"/>
<path d="M219.069 60.4007C222.141 60.4007 222.141 55.6313 219.069 55.6313C215.998 55.6313 215.998 60.4007 219.069 60.4007Z" fill="#333333"/>
<path d="M233.458 52.3169C230.386 52.3169 230.386 57.0862 233.458 57.0862C236.53 57.0862 236.53 52.3169 233.458 52.3169Z" fill="#333333"/>
<path d="M239.63 79.5322C236.558 79.5322 236.558 84.3016 239.63 84.3016C242.702 84.3016 242.702 79.5322 239.63 79.5322Z" fill="#333333"/>
<path d="M215.03 143.959C211.635 137.169 210.099 129.705 208.32 122.349C206.434 114.481 204.71 106.586 203.632 98.556C202.635 91.0383 202.15 83.4936 202.123 75.9219C202.096 72.2574 202.204 68.6198 202.42 64.9822C202.581 62.1529 202.258 49.4348 208.159 51.4557C208.59 51.6173 208.913 50.9168 208.482 50.7012C203.605 48.2222 201.988 54.0155 201.53 57.707C200.291 67.9731 200.102 78.401 200.83 88.694C201.503 98.3405 203.039 107.879 205.168 117.31C207.269 126.606 209.129 136.333 213.413 144.929C213.952 146.007 215.569 145.063 215.03 143.959Z" fill="#BC6269"/>
<path d="M244.723 92.6546C244.562 92.1426 243.807 92.3581 243.915 92.8701C247.202 110.142 250.732 127.468 244.211 144.47C243.78 145.629 245.639 146.141 246.071 144.982C252.537 128.088 249.978 109.522 244.723 92.6546Z" fill="#BC6269"/>
<path d="M237.688 139.028C239.629 138.839 241.757 138.678 243.374 139.756C245.233 140.968 245.88 143.393 246.284 145.576C247.577 152.555 248.17 159.668 248.035 166.755C248.008 167.886 247.955 169.072 247.47 170.096C246.715 171.632 245.099 172.521 243.509 173.168C236.799 175.889 229.335 175.728 222.087 175.512C221.36 175.485 220.578 175.458 219.958 175.081C218.961 174.488 218.611 173.222 218.342 172.063C216.563 163.952 215.243 155.734 214.408 147.462C214.273 146.115 214.138 144.713 214.516 143.42C215.863 138.516 233.108 139.486 237.688 139.028Z" fill="#AA4A4D"/>
<path d="M242.028 145.522C240.788 157.109 222.843 160.234 218.559 149.025C218.424 148.675 217.885 148.809 217.993 149.187C222.196 162.066 241.893 158.132 243.348 145.549C243.456 144.687 242.109 144.687 242.028 145.522Z" fill="#BC6269"/>
<path d="M231.548 153.847C232.249 153.362 232.357 152.231 231.737 151.638C231.037 150.964 229.824 151.261 229.447 152.123C229.393 152.231 229.366 152.339 229.366 152.473C229.312 152.689 229.339 152.904 229.42 153.147C229.716 154.009 230.794 154.359 231.548 153.847Z" fill="#BC6269"/>
<path d="M240.518 93.8668C240.275 87.9119 239.602 81.984 238.955 76.056C238.713 73.9543 238.497 71.8256 237.85 69.8317C237.257 67.9724 236.368 66.2209 236.045 64.3078C235.83 62.9067 235.91 61.3978 235.156 60.2122C234.159 58.6763 232.138 58.2182 230.306 58.0835C228.204 57.9218 225.887 58.0026 224.324 59.4038C222.061 61.4247 222.438 65.0353 223.165 67.9993C223.866 70.8016 224.701 73.6039 225.294 76.4332C226.426 81.8222 226.641 87.373 227.746 92.762C228.662 97.2349 228.554 101.627 228.878 106.208C229.39 113.537 227.854 120.677 226.479 127.899C225.671 132.183 224.809 136.548 224.836 140.913C224.054 143.446 223.381 146.006 222.626 148.566C222.546 148.862 222.492 149.266 222.761 149.428C222.95 149.536 223.165 149.455 223.354 149.536C223.569 149.617 223.677 149.886 223.704 150.102C223.92 151.233 223.435 152.365 223.111 153.47C222.788 154.575 222.626 155.895 223.354 156.784C223.785 157.323 224.459 157.592 225.132 157.727C226.291 157.996 227.584 157.916 228.554 157.242C230.09 156.191 230.44 154.116 230.602 152.284C230.952 148.916 231.195 145.521 231.41 142.153C234.051 130.081 236.719 118.01 239.359 105.938C239.764 104.133 240.168 102.301 240.356 100.442C240.653 98.259 240.626 96.0494 240.518 93.8668Z" fill="#F9E9DE"/>
<path d="M260.596 80.2869C259.68 79.6402 258.494 79.4517 257.686 78.6703C256.554 77.5925 256.554 75.7871 257.012 74.3051C257.443 72.8232 258.251 71.422 258.44 69.8861C258.979 65.8712 255.53 62.6109 252.97 59.4583C246.153 51.0513 244.752 39.896 244.537 29.4143C244.483 27.124 244.725 24.7258 244.348 23.0282C244.375 22.8396 244.429 22.651 244.456 22.4624C245.695 16.3727 243.782 12.4657 239.875 8.37005C233.516 1.66068 223.303 -1.03385 214.6 2.30736C214.384 2.3882 214.142 2.49592 213.899 2.57675C210.909 5.1635 208.322 8.31616 207.217 12.4118C206.516 14.9447 206.301 17.9356 206.813 20.5763C206.921 20.9265 207.028 21.2768 207.163 21.6001C207.325 18.7978 207.837 15.78 209.265 14.9986C210.531 14.271 216.971 16.4536 218.885 16.3189C222.145 16.1033 227.938 13.8669 229.69 17.8009C230.579 19.7948 229.528 22.1121 228.719 24.0252C228.665 24.133 228.639 24.2138 228.585 24.3216C228.1 25.4803 227.642 26.6658 227.561 27.07C226.941 30.5459 226.483 33.6986 226.483 36.2853C225.244 40.866 225.028 45.77 225.19 50.5663C225.217 51.2669 225.244 51.9944 225.54 52.6141C226.672 55.0662 230.228 54.4734 232.869 55.0662C235.564 55.6859 237.638 57.9224 238.932 60.3744C242.542 67.2185 241.06 75.5176 241.95 83.1971C242.192 85.2449 242.623 87.3197 243.647 89.125C245.722 92.8165 250.357 94.8913 254.479 93.9752C258.629 93.059 261.943 89.2328 262.266 85.0293C262.482 83.2779 262.051 81.3108 260.596 80.2869Z" fill="#8C6239"/>
<path d="M46.9756 303.582C53.8197 303.824 60.6368 303.689 67.4809 303.555C86.5312 303.204 105.608 302.827 124.659 302.477C127.623 302.423 131.449 301.776 131.665 299.486C131.853 297.438 128.835 296.145 126.303 295.525C117.168 293.342 107.576 292.911 98.0908 292.561C84.1332 292.022 70.1754 291.591 56.2447 291.241C47.5414 291.025 38.5686 290.863 30.4581 293.154C26.0391 294.393 19.4915 299.675 26.5242 302.207C28.4643 302.908 32.4251 302.585 34.5269 302.773C38.6495 303.124 42.799 303.447 46.9756 303.582Z" fill="url(#paint2_linear)"/>
<path d="M46.9756 303.582C53.8197 303.824 60.6368 303.689 67.4809 303.555C86.5312 303.204 105.608 302.827 124.659 302.477C127.623 302.423 131.449 301.776 131.665 299.486C131.853 297.438 128.835 296.145 126.303 295.525C117.168 293.342 107.576 292.911 98.0908 292.561C84.1332 292.022 70.1754 291.591 56.2447 291.241C47.5414 291.025 38.5686 290.863 30.4581 293.154C26.0391 294.393 19.4915 299.675 26.5242 302.207C28.4643 302.908 32.4251 302.585 34.5269 302.773C38.6495 303.124 42.799 303.447 46.9756 303.582Z" fill="url(#paint3_linear)"/>
<path d="M239.928 293.585C240.494 294.34 241.572 294.42 242.515 294.447C245.21 294.501 247.904 294.582 250.545 294.124C251.164 294.016 251.784 293.881 252.296 293.531C252.808 293.181 253.185 292.561 253.104 291.968C253.024 291.322 252.431 290.837 251.784 290.648C251.137 290.486 250.464 290.567 249.817 290.648C247.635 290.944 245.452 291.376 243.269 291.618C242.299 291.726 241.033 291.51 240.117 291.78C239.255 291.968 239.47 292.992 239.928 293.585Z" fill="white"/>
<path d="M187.572 292.347C188.003 292.724 188.623 292.832 189.188 292.886C192.098 293.209 195.036 293.155 197.973 293.128C200.074 293.101 202.203 293.074 204.305 293.047C206.218 293.02 208.131 292.993 209.99 292.616C210.421 292.535 210.852 292.427 211.202 292.158C211.553 291.915 211.849 291.511 211.849 291.08C211.849 290.865 211.768 290.649 211.607 290.487C211.31 290.218 210.852 290.272 210.448 290.326C203.442 291.43 196.302 291.511 189.269 290.622C188.757 290.568 187.787 290.326 187.383 290.784C186.979 291.215 187.168 292.023 187.572 292.347Z" fill="white"/>
<path d="M129.476 116.231C129.072 114.911 128.614 113.483 129.018 112.243C129.476 110.815 130.905 110.195 132.225 109.818C133.734 109.387 135.323 109.091 136.886 108.956C137.56 108.902 139.15 108.713 139.796 109.09C140.712 109.629 140.847 110.842 141.09 111.947C142.626 118.521 144.161 123.91 145.212 130C145.347 130.835 145.482 131.805 145.024 132.425C144.727 132.829 144.269 132.991 143.838 133.126C141.413 133.907 134.165 136.413 133.114 132.102C131.821 126.794 131.147 121.512 129.476 116.231Z" fill="#AA6A64"/>
<path d="M129.932 114.83C129.851 114.318 129.798 113.752 130.013 113.321C130.256 112.809 130.795 112.62 131.28 112.459C133.354 111.812 135.483 111.408 137.612 111.004C137.962 110.95 138.797 110.788 139.147 110.923C139.363 111.004 139.794 111.139 139.956 111.327C140.549 111.974 140.495 112.917 140.791 113.779C141.088 114.534 141.088 115.369 141.303 116.15C141.546 117.013 141.707 117.875 141.896 118.737C142.165 120.004 142.489 121.297 142.866 122.536C143.135 123.452 143.351 124.369 143.647 125.258C143.782 125.662 143.863 126.147 143.782 126.551C143.647 127.144 143.243 127.413 142.731 127.602C141.761 127.952 140.71 128.141 139.686 128.303C138.177 128.572 136.641 128.842 135.133 129.111C134.594 129.219 133.489 129.569 133.085 128.869C132.869 128.491 132.842 127.818 132.761 127.387C132.627 126.794 132.519 126.228 132.384 125.635C131.845 123.318 131.199 121.027 130.687 118.71C130.39 117.417 130.121 116.123 129.932 114.83Z" fill="white"/>
<path d="M135.972 110.25C135.81 110.25 135.621 110.277 135.433 110.303C135.029 110.384 134.625 110.465 134.22 110.546C133.978 110.6 133.682 110.681 133.682 110.815C133.682 110.869 133.762 110.923 133.843 110.95C134.247 111.058 136.268 110.788 136.322 110.411C136.295 110.303 136.161 110.25 135.972 110.25Z" fill="#5E625E"/>
<path d="M133.438 110.761C133.357 110.68 133.249 110.707 133.168 110.761C133.088 110.815 133.061 110.923 133.061 111.004C133.061 111.057 133.088 111.138 133.114 111.192C133.195 111.3 133.384 111.273 133.465 111.165C133.546 111.057 133.546 110.896 133.465 110.788L133.438 110.761Z" fill="#5E625E"/>
<path d="M138.45 130.485C138.288 130.674 138.234 130.943 138.234 131.213C138.234 131.347 138.261 131.455 138.288 131.59C138.396 131.886 138.666 132.129 138.962 132.21C139.258 132.317 139.582 132.29 139.878 132.183C139.959 132.156 140.04 132.129 140.094 132.075C140.175 132.021 140.201 131.913 140.228 131.832C140.336 131.482 140.336 131.105 140.147 130.782C139.824 130.216 138.908 129.946 138.45 130.485Z" fill="#EBEFEB"/>
<path d="M122.502 123.156C121.182 121.513 119.08 120.515 116.978 120.569C117.463 120.084 117.976 119.276 117.49 118.764C117.194 118.441 116.682 118.495 116.251 118.548C114.419 118.764 112.533 118.602 110.727 118.09C110.566 118.037 110.404 118.01 110.242 117.956C99.437 113.914 88.9823 108.956 79.0126 103.163C79.794 99.6059 79.6323 95.9145 79.4706 92.2768C79.2281 87.0225 78.9855 81.7951 78.77 76.5408C78.6891 74.5199 78.5006 72.3373 77.1264 70.8823C74.6743 68.3225 69.9589 69.9931 68.3152 73.1457C66.6715 76.2713 67.1296 80.0706 67.6416 83.5735C68.9888 92.7349 70.3361 101.923 71.6834 111.085C71.845 112.135 72.0337 113.267 72.7882 114.022C73.381 114.614 74.2432 114.83 75.0515 115.046C85.9644 117.956 96.8503 120.839 107.763 123.749C107.79 123.722 107.79 123.695 107.817 123.695C111.778 125.985 116.655 126.605 121.02 125.285C121.478 125.15 121.99 124.961 122.26 124.557C122.529 124.099 122.556 123.614 122.502 123.156Z" fill="#EADDD0"/>
<path d="M107.927 123.993C107.846 124.208 107.739 124.424 107.523 124.531C107.334 124.639 107.092 124.585 106.876 124.558C95.64 122.483 83.9459 120.732 73.3025 116.556C72.4402 116.205 71.551 115.855 70.9043 115.181C70.1498 114.4 69.7995 113.295 69.5031 112.244C66.0272 100.092 62.7399 87.6703 63.171 75.0599C63.2519 72.4192 63.6021 69.5899 65.3266 67.596C67.2397 65.4134 70.3384 64.7937 73.2216 64.4165C75.0808 64.1739 77.2095 64.0392 78.6646 65.2248C80.0927 66.3834 80.389 68.4043 80.6045 70.2097C81.2782 76.2724 81.9788 82.362 82.6524 88.4247C83.1105 92.5204 83.5686 96.6161 84.0536 100.712C84.1344 101.493 84.2423 102.301 84.5925 103.002C85.3201 104.457 86.9637 105.158 88.4727 105.777C93.8348 107.96 99.116 110.385 104.29 113.026C105.691 113.753 110.029 115.505 110.541 117.121C110.837 118.038 109.598 119.573 109.22 120.409C108.655 121.729 108.493 122.699 107.927 123.993Z" fill="#E8E8E8"/>
<path d="M67.1007 293.019C68.3132 293.908 66.6695 294.582 65.8612 294.663C64.4061 294.771 62.8972 294.717 61.496 294.42C61.1188 294.34 60.7415 294.259 60.4451 294.043C60.2026 293.882 60.041 293.666 59.8524 293.45C59.3943 292.858 58.2895 291.915 58.1009 291.214C57.9662 290.648 58.3704 290.082 58.6668 289.57C59.3404 288.466 60.4721 287.334 60.4182 286.014C63.5708 286.31 66.5617 285.394 69.1754 286.094C69.3909 287.037 70.2262 287.792 69.822 288.519C70.0645 288.034 77.6632 289.678 78.5524 289.813C80.0075 290.055 81.4625 290.271 82.9176 290.379C84.0493 290.46 86.2587 290.001 86.9054 290.998C87.121 291.349 87.2018 291.753 87.2557 292.157C87.2827 292.453 87.2826 292.777 87.1748 293.046C86.9862 293.531 86.4473 293.909 85.8815 294.07C79.6571 296.037 73.4328 292.938 67.1007 293.019Z" fill="#999999"/>
<path d="M87.1739 140.186C86.7697 138.973 85.4765 138.326 84.2639 137.841C76.342 134.77 67.6386 134.446 59.1239 134.5C54.7049 134.527 50.3129 134.635 45.8939 134.824C42.8221 134.958 36.5977 135.012 35.0079 138.327C33.2295 142.045 31.6668 149.401 32.5829 153.146C34.2266 159.964 33.6336 172.17 35.4659 180.954C35.2773 217.168 35.0888 253.356 34.9002 289.57C37.8372 289.651 40.7743 289.705 43.7113 289.786C44.1424 277.849 47.8069 266.209 50.8517 254.542C54.0582 242.201 56.5641 229.725 58.4233 217.168C59.0431 240.557 59.6628 263.972 60.3095 287.361C63.2466 287.361 66.1837 287.361 69.1207 287.361C69.1746 275.424 72.4619 263.703 75.1294 251.982C81.3268 224.794 86.635 182.167 86.1769 154.467C86.4464 150.344 86.6889 146.221 87.2278 142.287C87.3087 141.587 87.3895 140.859 87.1739 140.186Z" fill="#4D4D4D"/>
<path d="M41.5571 295.363C42.7427 296.279 41.0722 296.926 40.2638 296.98C38.8088 297.061 37.2998 296.953 35.8987 296.63C35.5214 296.549 35.1442 296.441 34.8478 296.226C34.6053 296.064 34.4437 295.821 34.282 295.606C33.824 294.986 32.746 294.016 32.6113 293.342C32.4765 292.777 32.9078 292.211 33.2311 291.699C33.9317 290.621 35.1173 289.489 35.0904 288.169C38.216 288.546 41.2608 287.684 43.8476 288.465C44.0362 289.408 44.8444 290.19 44.4133 290.917C44.6828 290.432 52.2276 292.238 53.1167 292.426C54.5448 292.696 55.9999 292.938 57.4819 293.1C58.6136 293.208 60.823 292.803 61.4427 293.8C61.6583 294.151 61.7122 294.555 61.7391 294.959C61.766 295.256 61.7392 295.579 61.6314 295.848C61.4158 296.333 60.8769 296.684 60.3111 296.845C54.0059 298.678 47.8893 295.444 41.5571 295.363Z" fill="#999999"/>
<path d="M73.1915 11.253C70.2544 13.4894 68.4761 16.9115 66.8324 20.2258C64.8115 24.3484 62.8176 28.6327 62.5212 33.2134C62.3057 36.6085 62.9792 40.2191 61.4434 43.237C67.2366 45.4465 72.9221 47.8986 78.4998 50.5931C86.4486 41.9975 91.9723 31.1925 94.2627 19.7138C94.3435 19.3366 94.3974 18.9324 94.2627 18.5552C94.101 18.151 93.7239 17.8815 93.3736 17.639C88.4157 14.3517 82.6763 12.4925 76.9908 10.6333C76.398 10.4447 75.7783 10.2291 75.1586 10.3099C74.4311 10.3908 73.7843 10.7949 73.1915 11.253Z" fill="#EADDD0"/>
<path d="M86.6671 132.775C86.3977 126.794 86.2629 120.785 86.3438 114.803C86.4785 101.061 85.7511 87.3996 84.7541 73.6844C84.3499 68.1337 83.8918 62.6099 83.3799 57.0591C83.1912 54.9035 76.913 52.6402 75.3502 52.3168C74.4071 52.1282 73.4909 51.8318 72.6018 51.5354C71.7395 51.239 70.8772 50.9156 70.0419 50.5923C65.7576 48.9486 61.5002 47.305 57.2159 45.6613C56.5693 45.4188 55.8957 45.1763 55.249 45.311C54.737 45.4188 54.3059 45.7422 53.9017 46.0655C45.9259 52.5054 43.7433 62.9871 41.5607 72.4988C36.6298 93.8934 33.8545 115.746 33.2617 137.626C33.2617 137.626 34.5281 141.102 38.8124 143.554C43.0967 146.006 58.5364 147.811 58.5364 147.811L79.5537 145.521C79.4728 145.547 86.9905 143.149 86.6671 132.775Z" fill="#EFEFEF"/>
<path d="M114.902 115.234C115.171 113.887 115.495 112.432 116.384 111.489C117.408 110.411 118.836 110.438 120.048 110.654C121.45 110.896 122.851 111.3 124.171 111.812C124.737 112.028 126.084 112.54 126.434 113.133C126.919 113.968 126.461 115.127 126.165 116.204C124.36 122.671 123.12 128.114 121.153 133.934C120.884 134.743 120.534 135.632 119.887 136.009C119.483 136.252 119.024 136.198 118.593 136.144C116.303 135.848 109.351 135.039 110.483 130.809C111.884 125.554 113.797 120.57 114.902 115.234Z" fill="#3D3D3D"/>
<path d="M115.899 114.156C116.087 113.671 116.276 113.159 116.653 112.863C117.084 112.513 117.596 112.566 118.055 112.62C119.995 112.917 121.908 113.429 123.794 113.968C124.09 114.048 124.845 114.264 125.06 114.534C125.195 114.695 125.465 114.992 125.518 115.234C125.707 116.069 125.195 116.878 125.06 117.767C124.925 118.575 124.548 119.303 124.36 120.084C124.171 120.947 123.901 121.782 123.632 122.617C123.255 123.857 122.931 125.123 122.635 126.389C122.42 127.306 122.177 128.195 122.015 129.111C121.935 129.542 121.773 129.973 121.531 130.323C121.153 130.808 120.722 130.862 120.237 130.808C119.294 130.701 118.378 130.431 117.489 130.189C116.141 129.785 114.821 129.407 113.474 129.003C112.989 128.868 111.965 128.734 111.965 127.925C111.965 127.494 112.261 126.901 112.369 126.47C112.531 125.904 112.692 125.339 112.854 124.746C113.474 122.455 114.04 120.165 114.686 117.875C115.064 116.635 115.468 115.396 115.899 114.156Z" fill="white"/>
<path d="M122.824 112.594C122.689 112.514 122.527 112.46 122.365 112.433C122.015 112.325 121.638 112.244 121.288 112.136C121.072 112.083 120.803 112.029 120.749 112.136C120.722 112.19 120.749 112.271 120.803 112.325C121.072 112.595 122.824 113.187 123.012 112.864C123.066 112.783 122.958 112.675 122.824 112.594Z" fill="#5E625E"/>
<path d="M120.558 111.975C120.531 111.894 120.45 111.84 120.342 111.867C120.261 111.894 120.18 111.948 120.153 112.056C120.126 112.109 120.099 112.19 120.126 112.244C120.153 112.379 120.288 112.433 120.396 112.379C120.504 112.325 120.558 112.19 120.558 112.056V111.975Z" fill="#5E625E"/>
<path d="M115.495 131.59C115.279 131.697 115.09 131.913 114.982 132.155C114.929 132.263 114.875 132.398 114.848 132.506C114.794 132.829 114.902 133.125 115.09 133.341C115.279 133.556 115.575 133.664 115.845 133.691C115.926 133.691 116.006 133.691 116.06 133.664C116.141 133.637 116.222 133.583 116.276 133.503C116.518 133.26 116.707 132.883 116.707 132.533C116.734 131.913 116.114 131.293 115.495 131.59Z" fill="#EBEFEB"/>
<path d="M75.0483 30.4645C74.1321 29.4945 72.9736 28.4167 71.6263 28.6053C70.3869 28.767 69.5246 29.9795 69.2821 31.219C69.0396 32.4315 69.2551 33.698 69.3359 34.9374C69.3628 35.2069 69.3359 35.5033 69.1742 35.6919C68.9856 35.9075 68.6623 35.9075 68.3659 35.9344C67.2611 36.0422 66.2373 36.635 65.5906 37.5242C65.1056 38.1978 64.8362 39.0331 64.2434 39.6529C63.462 40.4882 62.2763 40.7576 61.1446 40.9193C60.0398 41.081 58.9621 41.2157 57.8573 41.2696C56.9682 41.3235 55.9172 41.2696 55.4052 40.5151C55.2975 40.3804 55.2436 40.2188 55.2705 40.0301C55.3244 39.7337 55.6208 39.599 55.8633 39.4373C56.7794 38.8176 57.1029 37.605 57.1567 36.5002C57.2376 35.3955 57.1567 34.2369 57.6417 33.213C57.9112 32.6471 58.3423 32.1621 58.7734 31.731C61.899 28.4975 65.9948 26.3419 70.2791 25.1024C71.4108 24.7791 75.6681 23.2432 76.6381 24.1324C77.5543 24.9677 75.2908 29.252 75.0483 30.4645Z" fill="#D7C68E"/>
<path d="M90.7843 24.0792C91.3501 24.4025 91.8891 24.8337 92.2124 25.3726C92.428 25.7229 92.5356 26.127 92.7242 26.4773C93.1554 27.3126 93.9638 27.9323 94.88 28.121C94.88 27.2587 94.88 26.3695 94.907 25.5073C94.907 25.3186 94.907 25.103 95.0686 24.9683C95.2842 24.7797 95.6075 24.8875 95.85 24.7258C96.0655 24.5911 96.0924 24.2947 96.1194 24.0522C96.1733 22.9474 96.2272 21.7888 95.85 20.738C95.7153 20.3607 95.4997 19.9835 95.1763 19.7679C94.8261 19.5254 94.3949 19.4984 93.9638 19.4984C91.9429 19.4445 87.7394 19.714 86.1766 21.3038C84.5329 23.0014 89.6795 23.4594 90.7843 24.0792Z" fill="#D7C68E"/>
<path d="M36.9235 135.498C37.2199 137.276 37.624 139.082 37.2468 140.833C36.9774 142.073 36.3037 143.177 35.5223 144.121C31.9924 148.378 26.2531 149.644 20.891 149.995C14.5858 150.426 7.47224 149.563 3.34961 144.471C0.816757 141.345 -0.0993564 137.061 0.00842473 132.965C0.116206 128.869 1.16707 124.855 2.19099 120.921C4.6969 111.328 7.22972 101.736 9.73563 92.1432C10.1398 90.6073 10.571 89.0175 11.6218 87.8858C13.023 86.3768 15.1516 85.9727 17.1456 85.7572C20.8101 85.326 24.5556 85.1104 28.1393 85.9457C31.1302 86.6463 35.711 88.6133 37.1121 91.7929C38.6749 95.3766 37.5163 101.655 37.2738 105.481C36.6271 115.478 35.199 125.582 36.9235 135.498Z" fill="#736357"/>
<path d="M42.8221 67.9724C45.9747 63.1492 50.3936 58.6763 56.3755 56.2512C62.3573 53.8261 70.0907 53.8531 75.2911 57.2751C80.4107 60.6433 82.1083 66.3826 82.782 71.7447C84.0215 81.445 82.9705 91.28 80.6262 100.846C79.6292 104.968 78.3628 109.091 76.0725 112.863C73.2701 117.471 69.0398 121.351 64.6477 125.016C56.133 132.102 46.2711 138.785 34.3882 140.859C33.1218 141.075 31.7476 141.29 30.9123 142.072C29.2956 143.581 30.9123 146.195 33.2565 146.76C35.6008 147.326 38.1067 146.545 40.2892 145.656C51.2829 141.21 60.2556 134.042 69.0128 127.01C72.0846 124.557 75.1833 122.052 77.0964 118.899C78.6862 116.285 79.3868 113.375 80.0605 110.492C82.5394 99.8487 85.0452 89.1514 85.8536 78.3194C86.1769 73.7926 86.2309 69.1849 84.722 64.8198C83.213 60.4546 79.9796 56.332 75.1294 54.2033C72.2193 52.9369 68.905 52.398 65.6177 52.3172C57.7227 52.1286 49.8009 54.4728 43.873 58.7571C41.4749 60.4816 39.3192 62.6103 38.4839 65.1701C37.7295 67.4604 38.0798 70.613 40.5048 72.1219C41.3401 70.8555 41.9329 69.3197 42.8221 67.9724Z" fill="#736357"/>
<path d="M9.22387 73.3088C12.7537 68.9706 18.3315 65.6025 24.502 65.36C27.6815 65.2252 30.834 65.8989 33.8519 66.7881C36.0345 67.4348 38.217 68.2431 39.8606 69.6443C42.4743 71.8538 43.2559 75.195 43.3636 78.3206C43.4984 81.6619 43.0133 85.03 41.9624 88.2635C41.5583 89.5299 41.0194 90.7963 39.9415 91.7393C38.3518 93.1405 35.8998 93.5178 33.6095 93.6525C25.0948 94.2453 16.4453 92.9519 8.65812 89.961C4.13132 88.2365 2.81096 87.8054 4.07739 83.548C5.1552 79.9104 6.71796 76.3805 9.22387 73.3088Z" fill="#63564B"/>
<path d="M22.4828 124.045C23.6145 123.83 24.9617 123.587 25.7701 124.423C26.1742 124.854 26.3359 125.473 26.4437 126.066C27.1712 130.216 26.6054 134.581 24.8001 138.407C24.2073 139.674 23.4798 140.886 22.4558 141.829C20.3811 143.742 17.417 144.281 14.5877 144.228C12.944 144.201 11.2196 143.958 9.87229 143.042C7.71667 141.56 6.98924 138.758 6.77368 136.144C6.58506 133.8 6.63886 131.428 7.01609 129.111C7.20471 127.845 7.44723 124.045 8.87532 123.56C9.60285 123.318 11.3004 124.072 12.0818 124.207C13.2405 124.396 14.4262 124.53 15.5848 124.584C17.9021 124.665 20.2194 124.503 22.4828 124.045Z" fill="#63564B"/>
<path d="M6.34052 125.878C6.28663 126.093 6.25976 126.363 6.42143 126.524C6.52922 126.632 6.69082 126.632 6.85249 126.632C12.4032 126.875 17.9541 127.09 23.5048 127.333C24.5018 127.387 25.6064 127.387 26.3878 126.767C27.3578 126.012 27.4658 124.503 26.873 123.453C26.2802 122.402 25.0945 121.755 23.9089 121.512C22.7233 121.27 21.4839 121.351 20.2713 121.405C16.9571 121.593 13.6158 121.755 10.3016 121.674C9.38542 121.647 8.60394 121.432 7.87642 122.105C7.01417 122.914 6.58303 124.773 6.34052 125.878Z" fill="#63564B"/>
<path d="M26.2503 102.516C26.4389 102.516 26.6276 102.516 26.7892 102.597C27.0587 102.731 27.1396 103.081 27.1935 103.378C27.4629 104.968 27.4897 106.638 27.2203 108.228C27.1933 108.417 27.1396 108.605 27.0048 108.686C26.8971 108.767 26.7353 108.767 26.6006 108.767C21.2385 108.632 15.8495 108.498 10.4874 108.309C10.4604 107.15 10.5412 105.965 10.7837 104.806C11.4035 101.869 14.8794 102.758 17.1967 102.704C20.2146 102.65 23.2324 102.596 26.2503 102.516Z" fill="#63564B"/>
<path d="M6.52862 98.0977C6.52862 99.445 6.58254 100.819 6.39392 102.166C5.90891 105.804 3.78018 109.011 1.46289 111.894C2.35208 112.244 3.26822 112.594 4.15742 112.945C4.72327 111.651 5.26216 110.358 5.82801 109.091C6.36692 107.825 6.93287 106.532 7.28316 105.184C7.71429 103.514 7.79507 101.789 7.90285 100.065C8.01063 98.0169 9.51967 90.4992 8.01074 89.125C6.09762 89.9872 6.55556 96.2385 6.52862 98.0977Z" fill="#63564B"/>
<path d="M91.6191 144.497C92.6969 145.413 93.8286 146.329 95.1759 146.733C96.5231 147.138 98.1668 146.922 99.056 145.817C99.9991 144.632 99.7836 142.853 98.9483 141.587C98.113 140.32 96.7926 139.485 95.5262 138.677C96.3884 139 97.2776 137.922 97.089 137.033C96.8735 136.117 95.9841 135.551 95.0949 135.282C94.2057 135.012 93.2627 134.958 92.4004 134.608C91.619 134.312 90.4605 134.15 89.8138 133.638C87.0115 131.428 85.9067 129.92 82.1882 126.363C81.1373 125.366 80.2211 124.315 79.2511 123.237C78.5775 122.483 77.9578 121.674 77.1764 121.028C76.0178 120.058 74.0777 119.842 72.973 118.818C72.0838 118.01 71.2753 117.309 70.0089 117.875C67.988 118.818 68.2575 121.809 69.2275 123.372C70.8443 125.932 73.7813 128.168 75.9369 130.27C78.362 132.641 80.8409 134.958 83.3468 137.249C86.0414 139.701 88.8168 142.126 91.6191 144.497Z" fill="#EDD5BE"/>
<path d="M67.8556 106.369C67.2359 105.668 66.5892 104.968 66.212 104.106C65.7809 103.136 65.7 102.031 65.727 100.926C65.8617 96.2107 68.0442 91.7377 70.1729 87.3995C71.4662 84.7858 72.7597 82.1721 74.3225 79.7471C75.4004 78.0765 76.7475 75.7322 77.0978 73.846C77.502 71.6635 77.8792 67.46 77.6098 66.6786C76.2356 62.556 72.9483 58.9723 68.3676 58.9453C67.0742 58.9453 62.3588 60.7237 61.4426 61.6668C60.3648 62.7716 58.4787 65.9511 57.1045 67.4331C56.6733 67.9181 56.4578 68.5378 56.2422 69.1306C55.6494 70.7743 55.0837 72.4179 54.4909 74.0616C53.7903 76.0016 53.1166 77.9418 52.6316 79.9357C51.958 82.6302 51.6616 85.4055 51.7424 88.127C51.8232 90.5521 50.9609 94.1358 51.3381 96.507C51.7154 98.9321 51.3921 102.058 51.7694 104.483C52.0388 106.207 52.3083 107.932 52.955 109.522C53.5747 111.031 54.5446 112.378 55.5416 113.671C60.3648 119.842 78.2296 134.069 84.0767 139.242L89.7891 132.883C84.2384 128.976 72.4094 111.408 67.8556 106.369Z" fill="#E3E3E3"/>
<path d="M60.341 11.2797C58.6704 12.6001 56.5148 13.085 54.6286 14.0281C52.7424 14.9712 50.9371 16.8305 51.2604 18.9322C51.6646 21.5189 55.0865 23.0548 55.0057 25.6685C54.9788 26.5846 54.4939 27.4469 54.44 28.363C54.2513 30.7612 56.9729 32.5395 59.371 32.3778C61.7691 32.2162 63.8709 30.7881 65.9457 29.5217C73.8406 24.7254 82.975 22.0848 92.1903 21.8154C93.7262 21.7615 95.3429 21.7884 96.7171 21.1147C98.1183 20.4681 99.2229 18.8783 98.7918 17.3963C98.199 15.2946 95.289 14.9174 94.0226 13.1659C93.322 12.1959 93.1872 10.9294 92.7291 9.82467C91.8668 7.83072 89.9808 6.53734 88.1485 5.35175C84.4301 2.89973 80.496 0.393814 76.0769 0.043525C72.1429 -0.279818 68.0474 1.22917 64.9217 3.54646C62.1194 5.67514 63.1433 9.04328 60.341 11.2797Z" fill="#D7C68E"/>
<defs>
<linearGradient id="paint0_linear" x1="182.998" y1="290.993" x2="292.072" y2="296.373" gradientUnits="userSpaceOnUse">
<stop stop-color="#4D4D4D"/>
<stop offset="1"/>
</linearGradient>
<linearGradient id="paint1_linear" x1="182.998" y1="290.993" x2="292.072" y2="296.373" gradientUnits="userSpaceOnUse">
<stop/>
<stop offset="1"/>
</linearGradient>
<linearGradient id="paint2_linear" x1="23.5824" y1="295.641" x2="131.591" y2="300.968" gradientUnits="userSpaceOnUse">
<stop stop-color="#4D4D4D"/>
<stop offset="1"/>
</linearGradient>
<linearGradient id="paint3_linear" x1="23.5824" y1="295.641" x2="131.591" y2="300.968" gradientUnits="userSpaceOnUse">
<stop/>
<stop offset="1"/>
</linearGradient>
</defs>
</svg>
