<svg width="125" height="286" viewBox="0 0 125 286" fill="none" xmlns="http://www.w3.org/2000/svg">
<path d="M19.5451 285.272C25.2035 285.479 30.8619 285.401 36.5203 285.35C52.307 285.169 68.0936 285.014 83.8802 284.833C86.3348 284.807 89.5128 284.342 89.6678 282.688C89.8228 281.19 87.3167 280.234 85.198 279.769C77.6276 278.115 69.6697 277.779 61.8151 277.469C50.2658 277.004 38.6907 276.617 27.1413 276.307C19.9327 276.1 12.5173 275.945 5.79955 277.573C2.13064 278.451 -3.26936 282.275 2.59574 284.187C4.2235 284.704 7.47903 284.497 9.23598 284.652C12.6724 284.885 16.1087 285.143 19.5451 285.272Z" fill="url(#paint0_linear)"/>
<path opacity="0.22" d="M19.5451 285.272C25.2035 285.479 30.8619 285.401 36.5203 285.35C52.307 285.169 68.0936 285.014 83.8802 284.833C86.3348 284.807 89.5128 284.342 89.6678 282.688C89.8228 281.19 87.3167 280.234 85.198 279.769C77.6276 278.115 69.6697 277.779 61.8151 277.469C50.2658 277.004 38.6907 276.617 27.1413 276.307C19.9327 276.1 12.5173 275.945 5.79955 277.573C2.13064 278.451 -3.26936 282.275 2.59574 284.187C4.2235 284.704 7.47903 284.497 9.23598 284.652C12.6724 284.885 16.1087 285.143 19.5451 285.272Z" fill="url(#paint1_linear)"/>
<path d="M114.342 63.3543C115.014 62.45 115.866 61.649 116.796 61.0031C117.701 60.383 119.019 59.9179 119.897 60.6414C120.75 61.3648 120.491 62.7084 120.104 63.716C118.243 68.4184 114.6 72.139 111.061 75.7304C109.562 74.7228 108.218 73.4826 107.107 72.0615C108.761 70.7438 110.053 69.0385 110.88 67.1007C111.758 65.0337 112.223 62.5792 114.058 61.3131C114.264 61.5198 114.471 61.7524 114.678 61.9591C114.549 62.45 114.445 62.9151 114.342 63.3543Z" fill="#E8DBCE"/>
<path d="M32.8748 115.003C24.0901 113.272 29.3609 88.5975 40.2643 91.0262C50.1342 93.2224 62.717 102.162 73.2329 101.955C78.2712 101.852 82.9479 99.7592 86.5651 95.7286C93.7738 87.6931 100.776 79.5027 107.545 71.1313C109.431 72.4491 111.343 73.7668 113.229 75.0845C106.176 86.4788 99.0962 97.8989 92.0426 109.293C90.6732 111.489 89.2521 113.763 87.1593 115.339C85.1182 116.864 82.6894 117.561 80.3123 118.078C64.6032 121.514 46.8012 117.742 32.8748 115.003Z" fill="#444748"/>
<path d="M60.8584 280.518C61.7627 281.267 60.5483 281.861 59.954 281.913C58.8947 282.016 57.7837 281.964 56.7502 281.706C56.466 281.629 56.2076 281.551 55.9751 281.37C55.7942 281.241 55.6651 281.034 55.5618 280.853C55.2259 280.337 54.3991 279.536 54.2699 278.941C54.1666 278.451 54.4507 277.985 54.6832 277.546C55.1741 276.59 56.0009 275.634 55.9492 274.497C58.2488 274.756 60.4451 273.955 62.357 274.575C62.5121 275.376 63.1063 276.022 62.848 276.668C63.0288 276.254 68.5838 277.65 69.2297 277.779C70.2891 277.986 71.3484 278.166 72.4335 278.27C73.2603 278.347 74.8623 277.96 75.3532 278.786C75.5082 279.071 75.5858 279.432 75.6117 279.768C75.6375 280.027 75.6374 280.285 75.5599 280.543C75.4049 280.957 75.0174 281.267 74.604 281.422C70.0307 283.101 65.4833 280.44 60.8584 280.518Z" fill="#1A1A1A"/>
<path d="M58.7117 174.919C63.9308 174.79 69.1759 174.635 74.395 174.506C74.7309 173.834 73.3615 174.402 73.3873 175.152C73.7232 198.819 71.6045 222.512 67.083 245.766C65.1452 255.79 62.7166 265.79 62.6907 275.995C60.5462 275.995 58.4016 275.995 56.2571 275.995C55.5336 244.086 54.8102 212.177 54.061 180.268C54.0351 178.666 54.0868 176.805 55.327 175.772C56.2571 174.997 57.5231 174.945 58.7117 174.919Z" fill="#543237"/>
<path d="M14.4788 271.345C11.585 271.319 8.69122 270.286 6.44336 268.451C11.5333 259.46 16.6491 250.468 21.7391 241.451C23.341 238.609 24.9687 235.741 26.0798 232.667C27.4233 228.868 28.3018 224.889 28.5085 220.885C30.7047 176.806 30.7047 176.806 27.4234 167.298C26.9841 166.058 18.9745 161.536 27.4234 167.298C30.5238 169.416 42.2799 167.685 46.0005 168.228C46.8273 168.357 47.7057 168.512 48.2483 169.132C48.8684 169.83 47.9383 172.31 48.7651 171.819C55.4053 167.918 50.9612 173.215 49.9794 185.487C49.6435 189.802 45.0961 217.267 43.8042 221.376C41.5047 228.662 38.4301 236.206 33.7536 242.278C26.5449 251.605 21.7649 260.183 14.4788 271.345Z" fill="#543237"/>
<path d="M56.7992 42.245C55.6365 40.2555 54.9905 37.6717 55.0164 34.6746C55.0939 29.1195 55.7657 23.4353 58.2978 18.6037C61.1916 13.0228 67.9351 7.85531 74.3686 9.97398C81.9131 12.4285 80.673 22.7894 79.6395 29.6363C78.8127 35.088 76.5389 40.488 72.4049 43.821C66.2298 48.8335 59.7963 47.49 56.7992 42.245Z" fill="#E8DBCE"/>
<path d="M9.38912 275.583C9.93171 276.72 8.48477 276.772 7.8905 276.565C6.80533 276.203 5.74599 275.66 4.81584 274.963C4.58331 274.782 4.32496 274.575 4.19577 274.291C4.09242 274.084 4.0407 273.826 3.98903 273.593C3.88568 272.948 3.42065 271.785 3.54983 271.139C3.65318 270.622 4.144 270.26 4.58324 269.925C5.48755 269.201 7.03781 267.883 7.50288 266.747C9.67323 267.987 12.9289 269.46 14.5566 270.906C13.6781 271.552 13.6006 272.095 13.0321 272.612C13.3939 272.276 18.2513 276.074 18.8456 276.487C19.8015 277.159 20.7834 277.779 21.7911 278.348C22.592 278.787 24.323 279.097 24.4264 280.13C24.4522 280.492 24.3748 280.854 24.2457 281.216C24.1423 281.474 24.0389 281.732 23.858 281.939C23.5221 282.301 23.0054 282.43 22.5403 282.404C17.3211 282.146 13.9882 277.547 9.38912 275.583Z" fill="#1A1A1A"/>
<path d="M25.7725 111.359C26.7285 94.6165 29.0539 77.3312 36.4434 63.0431C41.7659 52.7857 49.0779 40.8746 59.3095 51.5971C60.2396 52.579 66.5957 48.91 67.2416 50.1502C68.7919 49.6077 70.5488 50.1761 71.5823 52.5015C75.0703 60.2785 76.3106 68.8307 76.8532 77.6413C77.4992 87.7437 77.6799 97.9237 77.9125 108.052C78.0158 112.754 78.1193 117.457 78.171 122.133C79.592 134.69 80.3153 147.325 78.6876 159.959C78.6101 160.605 78.4292 161.148 78.2225 161.613C78.1967 164.791 78.145 167.943 78.0934 171.121C78.0675 173.136 76.8532 175.824 75.0963 176.134C59.4646 178.847 43.8588 178.123 28.4597 173.731C26.6511 173.214 25.54 170.94 25.4625 168.718C24.7649 149.65 24.7132 130.427 25.7725 111.359Z" fill="#F0F0F0"/>
<path d="M28.2775 82.7063C32.2307 69.5809 38.1991 57.1531 44.1159 44.8286C44.9944 42.9942 48.0173 43.4851 48.4566 45.3971C48.5858 45.9655 48.689 46.5339 48.8182 47.1023C49.5416 46.9731 50.2909 47.2315 50.7818 48.0325C61.1427 65.8862 60.0058 88.4164 61.1168 108.337C62.047 124.821 62.9772 141.306 63.9073 157.79C64.6308 161.95 65.3025 166.11 65.9484 170.269C66.0259 170.864 65.9484 171.38 65.7675 171.82C66.9044 175.024 67.1369 178.357 66.5943 181.922C66.4135 183.059 65.0183 184.041 63.9073 183.989C62.0212 183.886 60.2126 183.602 58.4556 183.111C51.0145 184.041 43.1598 184.196 36.4162 180.759C27.5798 176.264 24.0401 173.602 23.4716 164.43C22.6965 151.692 23.4975 131.927 23.4716 119.189C23.42 106.787 24.712 94.6174 28.2775 82.7063Z" fill="#444748"/>
<path d="M68.9461 48.4714C69.1011 48.1613 69.4887 48.058 69.7988 48.1355C71.6849 48.5747 71.8398 49.2465 72.5633 50.9776C73.6743 53.613 74.7336 56.2226 75.6379 58.9356C77.369 64.103 78.661 69.3997 79.617 74.7739C81.5548 85.574 82.2782 96.5549 82.459 107.51C82.6657 119.008 82.8724 130.609 82.459 142.106C82.2265 148.307 81.9939 154.534 81.6064 160.709C81.4255 163.81 81.0897 166.884 80.9089 169.985C80.728 172.62 80.6762 174.791 79.5394 177.219C78.7901 178.821 75.9223 178.485 75.6122 176.703C75.173 174.093 75.6639 171.897 76.0773 169.313C76.5682 166.187 76.7232 163.06 77.0332 159.934C77.6017 154.276 77.7825 148.566 77.8601 142.881C77.9634 131.565 78.3251 120.274 78.196 108.957C78.0668 98.131 77.6275 87.2276 75.8705 76.5309C75.0179 71.3892 73.8811 66.2992 72.3567 61.3126C71.4265 58.3155 70.4189 55.2925 69.1528 52.3987C68.4552 50.7192 68.0935 50.1508 68.9461 48.4714Z" fill="#444748"/>
<path d="M48.015 65.1627C53.2859 59.3751 62.6391 62.8373 59.5386 72.1646C56.7223 80.6135 52.8208 88.6231 52.0715 97.8987C51.7098 102.343 53.1568 106.658 56.3865 110.275C62.8458 117.484 69.4602 124.511 76.2296 131.384C74.9119 132.908 73.5683 134.433 72.2505 135.957C62.8199 128.516 53.3893 121.075 43.9587 113.634C42.1501 112.213 40.2639 110.688 39.0754 108.699C37.9127 106.761 37.4992 104.539 37.2667 102.394C35.5614 88.1838 39.5403 74.4383 48.015 65.1627Z" fill="#444748"/>
<path d="M51.1919 156.756C53.1039 166.6 55.5583 176.315 58.5555 185.875C60.9067 187.063 63.6971 186.521 66.3067 186.314C69.2522 186.082 72.2235 186.314 75.1689 186.469C84.858 186.908 94.6246 186.133 104.133 184.17C105.115 183.963 106.2 183.705 106.82 182.904C107.207 182.413 107.337 181.767 107.466 181.173C108.99 173.783 108.732 166.032 106.742 158.746C105.735 155.077 104.288 151.434 104.443 147.636C104.546 145.465 105.76 141.357 102.427 142.416C99.5595 143.346 96.795 144.328 93.8495 144.923C91.6533 145.362 89.4313 145.646 87.1834 145.879C86.9509 144.923 86.2016 143.682 85.8915 143.191C85.1939 142.055 84.2379 141.021 83.0493 140.401C81.8608 139.781 80.3882 139.626 79.148 140.117C77.7528 140.685 76.771 142.003 76.2542 143.398C75.8408 144.535 75.7116 145.724 75.6083 146.912C74.5231 147.041 73.4121 147.17 72.3269 147.351C67.6245 148.101 62.9737 149.392 58.1937 149.418C55.8942 149.418 53.233 149.289 51.7861 151.072C50.5201 152.596 50.8043 154.818 51.1919 156.756ZM76.9776 146.783C76.9776 146.757 77.0035 146.731 77.0035 146.731C77.3393 145.749 77.701 144.742 78.0369 143.76C78.1919 143.321 78.347 142.881 78.6312 142.494C79.458 141.46 81.1374 141.46 82.2484 142.158C83.3852 142.856 84.1088 144.018 84.8064 145.155C84.9356 145.362 85.1165 145.698 85.2973 146.059C82.5327 146.292 79.7422 146.499 76.9776 146.783Z" fill="#B8996E"/>
<path d="M81.6312 140.22C82.1997 140.891 82.794 141.589 83.1299 142.416C83.4657 143.243 83.4916 144.25 82.9748 144.974C82.4581 145.697 81.347 146.007 80.6494 145.439C80.5719 145.697 80.391 145.904 80.1585 146.007C78.324 145.542 77.3164 143.682 76.3346 142.08C75.5595 140.84 74.6809 139.703 73.6991 138.618C72.8723 137.713 71.9165 136.732 71.8906 135.517C71.8906 134.613 72.4073 133.812 73.079 133.192C73.7508 132.598 74.5519 132.158 75.2753 131.667C76.9548 133.089 78.6599 134.51 80.3394 135.956C80.6236 136.189 80.9078 136.447 81.037 136.757C81.1662 137.093 81.0888 137.533 80.7787 137.713C80.3395 137.533 79.8485 137.507 79.3834 137.636C80.1585 138.489 80.8819 139.367 81.6312 140.22Z" fill="#E8DBCE"/>
<path d="M88.9959 16.4847C83.2084 10.5421 77.059 4.34107 69.3853 1.31809C59.5929 -2.55752 47.656 2.48077 42.5918 11.6272C42.3851 11.989 42.1785 12.299 41.9718 12.6091C41.9718 12.8158 41.9459 13.0225 41.9718 13.255C39.4914 19.3526 38.2511 26.0962 37.5535 32.5039C35.9774 46.7403 37.0884 60.9251 40.6282 74.7739C42.1267 80.5874 51.0924 79.2955 51.6867 73.8696C54.7355 77.0476 61.7116 75.3682 61.7116 69.6065C61.6858 53.5097 63.4426 37.568 66.7756 21.833C66.9823 21.3163 67.1632 20.7478 67.2924 20.1536C67.6025 19.5593 67.9643 18.9651 68.326 18.3966C71.0648 23.6933 77.7049 26.5354 83.5441 24.6235C84.1125 24.4426 84.6293 24.2101 85.146 23.9517C86.2054 23.9259 87.2648 23.6933 88.2724 23.2541C87.4456 21.2388 87.5232 18.8876 88.9959 16.4847Z" fill="#893D33"/>
<path d="M110.956 62.1397C111.628 60.2536 112.3 58.3675 112.971 56.5072C113.333 55.5254 113.669 54.5435 114.186 53.6134C115.064 51.9598 116.382 50.5646 117.958 49.5569C118.733 49.066 119.767 48.6784 120.542 49.1952C120.929 49.2985 121.291 49.5311 121.653 49.7636C122.35 50.2028 123.048 50.6679 123.746 51.1071C124.03 51.288 124.34 51.4947 124.546 51.7531C124.934 52.2182 125.037 52.8383 124.986 53.4325C124.908 54.0268 124.676 54.5694 124.417 55.112C123.022 58.0316 120.8 60.4603 119.198 63.2766C118.604 64.3359 118.087 65.4211 117.415 66.4288C116.64 67.5914 115.633 68.5991 114.651 69.5809C114.547 69.6843 114.444 69.7876 114.315 69.8135C114.082 69.891 113.824 69.7359 113.617 69.6068C112.79 69.0642 111.938 68.5216 111.111 67.979C110.827 67.7981 110.543 67.6173 110.362 67.3331C110.181 67.0489 110.103 66.7388 110.078 66.4029C109.948 64.956 110.439 63.535 110.956 62.1397Z" fill="#EDEDED"/>
<path d="M117.052 65.9373C116.535 67.0225 115.967 68.2627 114.83 68.6761C113.512 69.167 112.091 68.3143 110.929 67.5134C110.438 67.1775 109.921 66.8158 109.637 66.2732C109.197 65.4464 109.43 64.4646 109.688 63.5603C110.334 61.3641 111.187 59.2454 112.091 57.1267C112.841 55.3439 113.642 53.6128 114.494 51.8817C114.753 51.365 115.011 50.8224 115.398 50.409C116.277 49.4788 117.698 49.1946 118.938 49.4272C120.204 49.6339 121.341 50.2798 122.452 50.9257C123.098 51.3133 123.77 51.7267 124.106 52.3985C125.062 54.2071 122.219 57.075 121.341 58.4186C119.817 60.8215 118.292 63.3019 117.052 65.9373Z" fill="#333333"/>
<path d="M111.008 62.1914C111.861 59.7369 112.895 57.3598 113.954 54.9828C114.574 53.5875 115.22 52.1407 116.383 51.1847C116.744 50.9005 117.158 50.6421 117.597 50.6421C117.907 50.6421 118.217 50.7454 118.501 50.8488C120.052 51.443 121.55 52.1407 122.997 52.9933L123.075 53.0708C121.163 55.9904 119.432 59.0393 117.881 62.1656C117.184 63.5866 116.486 65.0594 115.298 66.0929C115.143 66.2221 114.988 66.3513 114.781 66.4029C114.548 66.4804 114.264 66.4288 114.032 66.3771C113.567 66.2737 113.075 66.1704 112.636 66.0154C112.042 65.8345 111.396 65.602 111.034 65.0852C110.724 64.6718 110.647 64.1551 110.673 63.6383C110.673 63.1474 110.828 62.6565 111.008 62.1914Z" fill="white"/>
<path d="M112.506 66.5837C112.919 67.3072 111.808 67.3589 111.498 66.8163C111.059 66.1187 112.196 66.0928 112.506 66.5837Z" fill="white"/>
<defs>
<linearGradient id="paint0_linear" x1="0.152808" y1="279.342" x2="89.6252" y2="283.747" gradientUnits="userSpaceOnUse">
<stop stop-color="white"/>
<stop offset="1"/>
</linearGradient>
<linearGradient id="paint1_linear" x1="0.152808" y1="279.342" x2="89.6252" y2="283.747" gradientUnits="userSpaceOnUse">
<stop/>
<stop offset="1"/>
</linearGradient>
</defs>
</svg>
