<svg width="105" height="292" viewBox="0 0 105 292" fill="none" xmlns="http://www.w3.org/2000/svg">
<path d="M32.8282 291.104C38.6173 291.263 44.4065 291.157 50.1956 291.051C66.3471 290.76 82.4986 290.443 98.65 290.152C101.161 290.099 104.413 289.597 104.545 287.905C104.677 286.372 102.113 285.394 99.9453 284.945C92.2 283.332 84.0582 283.015 76.0221 282.777C64.2059 282.407 52.3633 282.09 40.5471 281.852C33.1718 281.693 25.5851 281.614 18.7122 283.332C14.9849 284.284 9.48654 288.223 15.4872 290.126C17.1525 290.655 20.4833 290.39 22.2808 290.549C25.7966 290.787 29.3124 290.998 32.8282 291.104Z" fill="url(#paint0_linear)"/>
<path opacity="0.22" d="M32.8282 291.104C38.6173 291.263 44.4065 291.157 50.1956 291.051C66.3471 290.76 82.4986 290.443 98.65 290.152C101.161 290.099 104.413 289.597 104.545 287.905C104.677 286.372 102.113 285.394 99.9453 284.945C92.2 283.332 84.0582 283.015 76.0221 282.777C64.2059 282.407 52.3633 282.09 40.5471 281.852C33.1718 281.693 25.5851 281.614 18.7122 283.332C14.9849 284.284 9.48654 288.223 15.4872 290.126C17.1525 290.655 20.4833 290.39 22.2808 290.549C25.7966 290.787 29.3124 290.998 32.8282 291.104Z" fill="url(#paint1_linear)"/>
<path d="M22.7317 43.4118C21.2778 44.3106 20.1412 45.553 19.0838 46.7954C12.0258 55.2016 7.61122 64.956 3.72536 74.6839C1.63703 79.9179 -0.345551 85.3633 0.0509658 90.8088C0.103835 91.4168 0.183133 92.0513 0.500347 92.58C0.791126 93.1087 1.29338 93.5052 1.79563 93.8753C2.6151 94.4832 3.461 95.0648 4.33334 95.5671C4.9942 95.9636 5.70794 96.3337 6.5274 96.3866C7.24114 96.413 7.95487 96.2015 8.61573 95.8843C11.2856 94.6154 12.8981 92.1042 13.7969 89.6193C14.6957 87.1081 15.0129 84.5175 15.991 82.0327C16.8104 79.9443 18.0528 78.0146 19.1895 76.032C20.7756 73.2564 22.1766 70.4279 23.5512 67.573C25.058 64.4802 26.5647 61.3873 27.6485 58.1887C28.6002 55.4395 29.2346 52.5846 30.715 49.9676C31.4551 48.6723 32.3803 47.4563 32.8033 46.0817C34.4687 40.8213 26.1153 41.3499 22.7317 43.4118Z" fill="#4D4D4D"/>
<path d="M80.519 280.424C80.7304 280.133 80.8891 279.816 80.9948 279.446C79.0915 257.029 78.88 234.613 77.6376 212.197C76.5009 191.604 78.88 170.589 78.6686 149.864C79.4087 142.674 78.2192 135.352 75.1528 128.611C74.9677 128.188 74.7563 127.765 74.3862 127.448C73.2231 126.443 71.214 126.972 69.6544 127.501C54.7453 132.576 37.14 131.386 23.5527 124.223C20.8564 127.606 20.0897 131.756 19.4289 135.748C18.3451 142.224 17.1819 148.701 16.8912 155.204V155.23C16.8383 156.631 16.7854 158.032 16.8383 159.433C17.0233 167.549 18.9266 175.532 20.407 183.515C21.385 188.723 22.2309 193.983 22.3102 199.27C22.3895 203.605 21.6494 207.544 22.8125 211.774C25.6938 222.189 25.6939 233.556 26.9098 244.209C28.2051 255.602 29.5004 267.022 30.5578 278.441C30.6107 278.891 30.6371 279.34 30.69 279.816C30.875 279.869 31.8002 280.027 33.0426 280.239C32.9105 280.265 32.7519 280.265 32.6197 280.292C30.1349 281.931 27.3857 283.305 24.5043 284.336C23.6584 284.627 22.7861 284.918 22.1781 285.499C21.5701 286.081 21.3057 287.059 21.8873 287.693C22.3895 288.222 23.2883 288.301 24.0813 288.301C30.1348 288.354 36.1619 287.905 42.1097 286.953C42.4533 286.9 42.8498 286.821 43.1142 286.61C43.3256 286.425 43.405 286.187 43.4843 285.922C44.0923 283.913 43.6957 281.693 42.4269 279.948C42.2683 279.948 42.1097 279.948 41.9511 279.922C41.9775 279.869 42.0039 279.816 42.0039 279.737C42.8498 257.558 43.6957 235.406 44.5681 213.228C44.9382 203.896 44.1187 172.386 46.9736 163.504C48.1632 163.61 49.3263 163.689 50.5159 163.795C56.9923 193.137 64.6847 244.526 71.1612 273.842C71.7427 276.432 72.43 279.208 74.4919 280.873C74.4919 280.873 74.4919 280.873 74.5183 280.873C73.5931 281.032 72.6679 281.191 71.7427 281.402C69.7073 283.067 67.4339 284.495 64.9755 285.632C64.2617 285.975 63.5216 286.292 63.0194 286.874C62.5435 287.456 62.4378 288.354 63.0194 288.857C63.5216 289.306 64.3411 289.279 65.0284 289.227C70.421 288.83 75.7608 287.958 80.9683 286.636C81.2856 286.557 81.6028 286.478 81.8143 286.24C81.9729 286.055 82.0257 285.817 82.0786 285.605C82.3694 283.781 81.7878 281.878 80.519 280.424Z" fill="#4D4D4D"/>
<path d="M81.5252 106.458C81.3931 100.008 81.1551 93.5578 80.7586 87.1078C80.2564 78.7017 79.9392 70.0576 78.406 61.7307C77.4279 56.4967 75.4189 50.9191 70.5549 47.8262C69.3389 45.315 67.5678 43.2002 64.8979 42.0106C64.0785 40.7946 62.4924 40.6361 61.2235 41.2176C60.219 40.7154 58.8973 40.636 57.8399 41.4819C56.994 42.1428 56.2539 42.8565 55.5401 43.5967C52.3151 43.3059 49.0637 42.7508 45.8651 43.3059C42.5872 43.861 37.9612 43.068 33.8903 43.2002C33.3352 41.482 30.9032 40.2924 29.37 42.0899C28.2333 43.3852 27.2288 44.7598 26.2772 46.1344C25.4313 47.1125 24.7175 48.2492 24.1096 49.5445C20.2237 56.2059 17.8975 63.5547 16.5757 71.0885C11.9761 87.7951 11.6589 105.586 12.4255 122.953C12.4255 123.059 12.3991 123.191 12.4255 123.297L12.9542 137.518C13.1128 141.907 12.9542 146.427 13.9587 150.736C15.4919 157.291 20.1179 155.89 28.4977 156.472C30.1366 156.578 31.6698 157.635 31.4583 156.578C32.1456 156.604 32.8329 156.631 33.5467 156.657C33.7846 156.657 34.0489 156.683 34.2868 156.683C34.3661 156.683 34.419 156.683 34.4983 156.683C37.3268 156.763 40.1817 156.736 42.7458 156.683C43.0102 156.683 43.2481 156.683 43.5124 156.657C44.2262 157.714 45.7858 158.349 47.134 157.979C47.8741 157.767 48.6143 157.582 49.3545 157.397C49.6188 157.476 49.9096 157.529 50.2268 157.556C50.8348 157.582 51.4428 157.609 52.0508 157.635C53.0817 158.269 54.4299 158.375 55.4344 157.635C60.4569 157.503 65.4002 156.736 70.1848 155.388L74.2293 154.939C74.6787 154.886 75.1281 154.754 75.551 154.542C76.9785 154.701 78.591 154.04 79.014 152.48C83.0056 137.201 83.3492 121.79 81.5252 106.458Z" fill="#333333"/>
<path d="M58.6831 14.0955C58.6831 7.14326 52.048 1.5127 43.8269 1.5127C35.6322 1.5127 28.9707 7.14326 28.9707 14.0955C28.9707 15.2586 29.1822 16.3689 29.5258 17.4527C29.5258 17.717 29.5523 18.0078 29.5523 18.2986C29.4994 20.8099 29.6316 23.3211 30.1603 25.806C31.2176 30.6171 33.9404 35.0845 39.0951 37.8337C40.8134 38.7325 42.7959 39.4462 44.8578 39.4197C47.6335 39.3933 50.1712 38.098 52.0745 36.4855C58.4187 31.1722 58.9739 23.189 58.5245 15.6287C58.6302 15.1264 58.6831 14.6242 58.6831 14.0955Z" fill="#EDD5BE"/>
<path d="M62.3868 15.9202C62.2282 13.8848 61.9109 11.9286 61.3823 9.97247V9.94601C61.0386 7.93699 60.7214 5.95444 60.4042 3.94542C60.3249 3.39029 59.9812 2.91449 59.3997 2.80875C57.1792 2.3858 54.9587 2.06852 52.7118 1.83061C51.205 1.03757 49.3017 0.667559 47.6099 0.826166C46.3939 0.667559 45.1515 0.720373 44.1206 0.852545C43.4861 0.931849 42.7988 1.06403 42.138 1.27551C40.9749 1.24907 39.8117 1.30199 38.675 1.40773C36.1902 -0.918507 30.4539 -0.257667 28.7357 2.62369C28.3921 3.20525 28.207 3.76039 28.1541 4.28908C25.9072 4.8442 23.6867 6.21873 23.0258 8.51853C22.6822 9.65521 22.8408 10.9241 23.5545 11.8758C23.9511 12.4309 24.5326 12.7216 25.1406 12.986C25.3785 13.2767 25.6693 13.5675 25.9601 13.8319C26.2244 14.2813 26.5945 14.6513 27.1496 14.9685C27.3611 15.1007 27.599 15.1271 27.8105 15.1271C27.9691 15.2329 28.1277 15.3122 28.2599 15.3915C29.2644 15.9995 30.216 14.8628 30.0045 13.9112C30.1367 13.6468 30.1632 13.3296 30.1103 13.0124C30.5332 12.5102 30.9298 11.9286 31.3263 11.5056C31.8021 11.2677 32.2515 11.0299 32.7537 10.8184C32.8066 10.792 32.8595 10.7919 32.9124 10.7655C32.9917 10.739 33.0445 10.7126 33.1238 10.6862C33.864 10.4218 34.5777 10.369 35.265 10.4747C35.3443 10.5012 35.3972 10.5276 35.4765 10.5276C36.0316 10.6862 36.5867 10.8448 37.1683 10.977C37.5119 11.1092 37.882 11.2677 38.2257 11.4263C38.5958 11.5849 38.9658 11.5321 39.2831 11.3735C42.6138 11.8758 46.1031 11.9022 49.4867 11.7172C51.0464 13.0918 53.8485 12.7481 55.3817 11.4263L55.4081 11.4C55.4609 11.9815 55.3288 12.5894 54.9851 13.1446C54.7736 13.4882 54.8001 14.0698 55.038 14.387C55.7253 15.2329 56.0425 16.1581 55.9896 17.242C55.9632 18.1143 56.9148 18.5108 57.6021 18.3522C57.8136 18.2993 57.7872 19.0395 57.7079 19.7796C57.6286 19.5946 57.4171 19.4624 57.1528 19.5417C55.6196 20.0176 54.0599 20.4934 52.5003 20.9163C52.3417 20.414 52.0245 19.9911 51.4429 19.7532C50.597 19.4095 49.4868 19.5417 48.6144 19.5417C46.7905 19.5417 44.9665 19.5682 43.1425 19.5417C42.9046 19.5417 42.746 19.674 42.6931 19.8326C42.4288 19.8326 42.1644 19.8326 41.9265 19.8326C41.6357 19.8326 41.3978 20.044 41.3978 20.3084C41.3978 20.9428 41.3978 21.5508 41.4242 22.1852C41.0806 22.1588 40.7634 22.1323 40.4462 22.1323C39.7324 22.1059 39.0187 22.1059 38.305 22.1059C38.2785 21.7622 38.2521 21.4186 38.2257 21.1014C38.2521 20.8106 38.2785 20.5462 38.2785 20.2554C38.2785 19.9911 38.0406 19.7796 37.7498 19.7796H37.6177C37.5913 19.7796 37.5648 19.7532 37.5119 19.7532C35.873 19.6739 34.2341 19.5682 32.5951 19.4889C31.4584 19.436 29.9252 19.0659 28.8679 19.436C27.3082 19.9647 27.5461 21.7887 27.7312 23.269C27.5726 23.9034 27.5461 24.5379 27.8898 24.9079C28.1541 25.2252 28.5242 25.2516 28.8943 25.3044C30.1103 25.5159 31.5377 25.3309 32.7537 25.3309C33.9433 25.3309 36.5867 25.8596 37.5912 25.0137C38.0406 24.6172 38.2257 23.9034 38.2785 23.1104C38.305 23.1104 38.3314 23.1104 38.3578 23.1104C38.3843 23.269 38.49 23.4012 38.7015 23.4276C39.6267 23.5862 40.5784 23.6655 41.5036 23.6127C41.715 24.3528 42.2437 24.9872 43.2218 25.3044C44.4906 25.7538 46.2353 25.4102 47.5835 25.463C48.3501 25.4895 49.0903 25.4895 49.7247 25.2251C50.2798 25.1723 50.8349 25.093 51.3636 24.9872C51.4958 24.9608 51.6015 24.8551 51.6808 24.7493C51.8394 24.7229 51.998 24.6172 52.0509 24.4586C52.2888 23.7449 52.6325 22.6875 52.6325 21.7094C54.2185 21.2336 55.831 20.7841 57.4435 20.3347C57.5493 20.3083 57.6286 20.2554 57.6814 20.1761C57.6021 20.6784 57.5229 21.1278 57.4964 21.2071C57.2056 22.3702 56.6769 23.3483 56.0425 24.3264C55.7782 24.7229 55.9103 25.5159 56.3068 25.8067C56.5976 26.0182 56.8884 26.1503 57.1528 26.2825C56.7827 28.0536 55.8575 29.7455 54.9058 31.358C53.8484 33.1555 51.205 34.7416 49.5925 36.1426C47.98 37.5701 45.7595 38.5746 43.4861 38.416C43.1954 38.3896 42.8781 38.3631 42.6138 38.2309C42.0587 37.9666 41.8472 37.3586 41.6622 36.8035C41.5036 36.2483 41.3185 35.6668 40.7634 35.3496C40.2347 35.0324 39.283 35.3231 39.3624 35.8782C39.4152 36.2483 39.8382 36.5127 39.8382 36.8828C39.8382 37.3057 39.2566 37.5436 38.7808 37.4379C38.3314 37.3321 38.0142 36.9885 37.697 36.6449C36.9833 35.8518 36.2695 35.0587 35.5822 34.2921C35.2914 33.9485 34.9478 33.6842 34.4984 33.8693C35.08 35.1117 36.2431 36.3012 37.0626 37.4379C37.7499 38.3631 38.4636 39.3147 39.4945 39.9492C40.737 40.6893 42.2701 40.9008 43.7769 40.9272C45.6009 40.9537 47.5042 40.7422 48.9581 39.7641C50.0154 39.0768 52.5796 37.015 53.2405 36.0105C55.4345 32.6533 56.8356 30.3534 58.0251 26.6262C58.0251 26.5733 58.0515 26.5469 58.0515 26.494C59.9812 26.5469 61.1179 24.1413 61.6202 22.1059C62.0167 20.4405 62.2017 18.6166 61.8581 17.0041C62.2282 16.819 62.4397 16.4489 62.3868 15.9202ZM36.8511 23.4012C36.8246 23.4805 36.7718 23.5597 36.7453 23.6391C35.1857 23.7977 33.5732 24.0092 32.04 23.9299C31.2734 23.9034 30.6654 23.7448 30.2425 23.4012V23.3748C30.2425 22.476 30.2689 21.5508 30.2689 20.652C31.2998 20.652 32.3043 20.652 33.3353 20.652C34.5513 20.6785 35.7408 20.7313 36.9568 20.7577C37.0097 21.2071 37.0626 21.7358 37.0626 22.2116C36.9833 22.6082 36.9304 23.0046 36.8511 23.4012ZM50.6234 22.476C50.412 23.3483 50.1476 23.9563 49.3281 24.2999C47.9535 24.4585 46.579 24.485 45.2044 24.3792C44.0677 24.2735 43.6712 24.2736 43.5654 23.2162C43.539 23.0311 43.539 22.846 43.539 22.661C43.5919 22.5288 43.5919 22.3702 43.539 22.238C43.539 21.7886 43.5654 21.3129 43.5919 20.8635C45.8388 20.8635 48.0857 20.8635 50.3327 20.8899C50.4913 20.9957 50.597 21.1278 50.6763 21.2864C50.6763 21.6036 50.6763 21.9473 50.6763 22.2645C50.6499 22.3438 50.6234 22.3967 50.6234 22.476Z" fill="#333333"/>
<path d="M28.2841 66.7005C26.8038 64.2685 25.0591 62.0745 23.3145 59.854C21.7548 57.8714 21.5962 55.1486 19.455 53.5626C17.3667 52.0294 14.6439 52.0029 12.1591 52.2408C11.6833 52.2937 11.2603 52.4523 10.9167 52.6903C10.6788 52.796 10.4673 52.9546 10.2823 53.1396C9.51565 53.2982 8.7755 53.5626 7.98247 53.8534C6.44927 54.4614 5.97344 55.9945 6.7136 57.422C10.0708 64.1099 13.5866 70.7979 19.0056 76.0848C19.7194 76.7985 20.671 76.8249 21.464 76.5077C21.9134 76.6663 22.4157 76.772 22.9444 76.772C24.3454 76.772 25.7993 76.5077 27.1739 76.2698C28.6013 76.0319 29.9231 75.7675 30.6632 74.3665C31.985 71.9345 29.5266 68.7095 28.2841 66.7005Z" fill="#909294"/>
<path d="M32.1981 71.7496C27.8628 65.4581 23.5804 59.1403 19.2452 52.8489C18.6636 52.003 17.712 52.0294 17.0775 52.4788C14.8042 52.3731 12.5572 52.3467 10.2839 52.426C9.06789 52.4788 7.71974 52.4259 7.11175 53.6419C6.9267 54.012 7.21747 54.3821 7.61399 54.3821C10.4689 54.4085 13.3238 54.4614 16.1788 54.4878C16.3109 54.6993 16.5753 54.7522 16.7868 54.6464C21.0691 60.885 25.3515 67.1235 29.6075 73.3885C30.7177 75.0803 33.3347 73.3885 32.1981 71.7496Z" fill="#606060"/>
<path d="M55.8556 94.0606C52.4719 91.7344 49.009 89.5668 45.4404 87.5578C42.8234 84.7028 39.757 82.2444 36.3734 80.2618C35.2895 79.6274 34.2586 79.8388 33.5713 80.4733C33.4127 80.4997 33.2277 80.5262 33.069 80.6055C32.5404 80.2618 32.0117 79.971 31.5094 79.8389C31.1658 79.9975 30.8486 80.1561 30.5313 80.3676C30.4785 80.394 30.267 80.5526 30.1084 80.6583C29.9498 80.7905 29.6326 81.0285 29.6326 81.0285C29.5004 81.1606 29.3418 81.2663 29.2096 81.3985C29.1567 82.6673 29.9233 84.4385 30.6899 85.8659L32.8047 89.699C32.884 89.8576 32.9633 90.0426 33.069 90.2012C33.0955 90.2541 33.1219 90.3069 33.1483 90.3334L36.5055 96.4397C36.717 96.519 36.9549 96.6247 37.1664 96.7569C37.8801 97.8407 38.6203 98.9245 39.4133 99.9819C40.6029 103.392 43.2463 106.194 46.5771 108.097C50.8595 110.529 58.6576 114.072 61.8033 108.282C64.8962 102.652 60.2701 97.0742 55.8556 94.0606Z" fill="#4D4D4D"/>
<path d="M69.893 56.8138C69.2586 55.5979 67.699 55.122 66.483 55.545C65.5049 55.5185 64.4475 55.7036 63.3108 56.2323C56.7551 59.1401 55.2483 67.414 53.8473 73.6261C51.8647 82.4288 50.5694 91.4959 51.9704 100.51C52.129 101.567 52.7635 102.228 53.5036 102.545C53.4508 103.55 53.4243 104.555 53.4508 105.559C53.4772 107.224 54.6932 107.938 55.9356 107.912C56.4114 108.123 56.8608 108.229 57.2573 108.255C57.786 108.678 58.4469 108.916 59.2135 108.837C67.3553 107.859 66.7473 97.3644 68.0426 91.3637C68.8885 87.3986 70.0781 83.5919 71.532 79.8118C72.8801 76.2696 74.2811 72.6481 74.4926 68.8151C74.7041 64.9821 73.1444 59.3251 69.893 56.8138Z" fill="#4D4D4D"/>
<path d="M29.4455 82.0853C29.7099 82.0324 29.9478 81.9531 30.1857 81.8209C31.296 81.2394 31.7454 80.1027 31.9568 78.9131C32.2476 77.2213 32.0626 75.4767 31.9568 73.7584C31.2695 72.6482 30.4501 71.6172 29.3134 70.9035C29.1019 71.1414 28.9169 71.4057 28.7054 71.6436L29.3134 73.2033C28.3617 72.1459 27.2251 71.2207 26.0091 70.4541C24.8195 69.714 23.207 69.1588 22.3082 70.0047C21.4359 70.8242 21.9646 72.3574 22.599 73.5469C24.3701 76.6926 26.7757 79.4683 29.4455 82.0853Z" fill="#EDD5BE"/>
<path d="M7.15955 71.5122C7.23886 70.772 7.31816 70.0054 7.74112 69.4239C8.24337 68.7366 9.14215 68.393 9.67084 67.7321C10.3581 66.9126 10.3846 65.7231 10.9397 64.8243C11.4419 63.9784 12.3407 63.4233 13.3188 63.344C14.2969 63.2647 15.2749 63.6876 15.8829 64.4278C16.9668 65.7495 16.7817 67.7056 16.3323 69.3446C15.7243 71.6444 14.7991 73.8384 13.5567 75.8739C13.3188 76.2704 13.0545 76.6669 12.6844 76.9049C11.9442 77.3542 11.019 77.1163 10.1995 76.8784C9.08927 76.5612 7.3446 76.4554 6.89521 75.213C6.52513 74.1556 7.15955 72.596 7.15955 71.5122Z" fill="#EDD5BE"/>
<path d="M52.1813 42.5666C46.4186 42.0379 40.5502 42.4873 34.761 41.9322C34.3381 41.8794 33.783 42.3023 33.7301 42.7252C33.5186 44.0998 33.4922 43.9941 33.6508 45.3687C33.6772 45.6595 33.8358 45.8974 34.0209 46.056C34.153 50.1533 34.6024 54.2242 35.2633 58.2687C35.8449 61.8109 36.2149 65.829 38.0389 68.9747C38.3561 69.5299 39.1227 69.477 39.4664 68.9747C42.6121 64.2958 45.8635 59.6697 49.2207 55.123C50.8068 52.9818 52.4986 50.8935 54.0582 48.7259C54.7455 47.7743 56.2522 46.3468 56.0936 44.9458C55.8029 42.9103 53.8996 42.7252 52.1813 42.5666Z" fill="#4D4D4D"/>
<defs>
<linearGradient id="paint0_linear" x1="12.9352" y1="285.197" x2="104.507" y2="288.992" gradientUnits="userSpaceOnUse">
<stop stop-color="white"/>
<stop offset="1"/>
</linearGradient>
<linearGradient id="paint1_linear" x1="12.9352" y1="285.197" x2="104.507" y2="288.992" gradientUnits="userSpaceOnUse">
<stop/>
<stop offset="1"/>
</linearGradient>
</defs>
</svg>
