<svg width="2162" height="636" viewBox="0 0 2162 636" fill="none" xmlns="http://www.w3.org/2000/svg">
<path d="M403.429 436.286C403.429 441.321 399.321 445.429 394.286 445.429C389.25 445.429 385.143 441.321 385.143 436.286C385.143 431.25 389.25 427.143 394.286 427.143C399.321 427.143 403.429 431.25 403.429 436.286ZM412.571 436.286C412.571 426.179 404.393 418 394.286 418C384.179 418 376 426.179 376 436.286C376 438.464 376.25 440.714 377.179 442.679L390.214 470.321C390.929 471.893 392.571 472.857 394.286 472.857C396 472.857 397.643 471.893 398.393 470.321L411.393 442.679C412.321 440.714 412.571 438.464 412.571 436.286Z" fill="#302835"/>
<path d="M745.5 41L720 51.2857V54.7143H723.4C723.4 55.6518 724.223 56.4286 725.233 56.4286H765.767C766.777 56.4286 767.6 55.6518 767.6 54.7143H771V51.2857L745.5 41ZM726.8 58.1429V78.7143H725.233C724.223 78.7143 723.4 79.4911 723.4 80.4286V82.1429H767.6V80.4286C767.6 79.4911 766.777 78.7143 765.767 78.7143H764.2V58.1429H757.4V78.7143H754V58.1429H747.2V78.7143H743.8V58.1429H737V78.7143H733.6V58.1429H726.8ZM769.167 83.8571H721.833C720.823 83.8571 720 84.6339 720 85.5714V89H771V85.5714C771 84.6339 770.177 83.8571 769.167 83.8571Z" fill="#302835"/>
<path d="M1883.5 579L1858 589.286V592.714H1861.4C1861.4 593.652 1862.22 594.429 1863.23 594.429H1903.77C1904.78 594.429 1905.6 593.652 1905.6 592.714H1909V589.286L1883.5 579ZM1864.8 596.143V616.714H1863.23C1862.22 616.714 1861.4 617.491 1861.4 618.429V620.143H1905.6V618.429C1905.6 617.491 1904.78 616.714 1903.77 616.714H1902.2V596.143H1895.4V616.714H1892V596.143H1885.2V616.714H1881.8V596.143H1875V616.714H1871.6V596.143H1864.8ZM1907.17 621.857H1859.83C1858.82 621.857 1858 622.634 1858 623.571V627H1909V623.571C1909 622.634 1908.18 621.857 1907.17 621.857Z" fill="#302835"/>
<path d="M4 437C65.8333 485.167 223.45 617.542 311 575C595 437 549.971 161.122 900.5 92.5C1278.5 18.5 1321.01 765.597 1737.5 609.5C2035 498 1957.5 14 2161 5.5" stroke="#302935" stroke-width="10" stroke-miterlimit="1.52487" stroke-dasharray="40 40"/>
</svg>
